<svg width="20" height="20" viewBox="0 0 20 20" fill="none" xmlns="http://www.w3.org/2000/svg">
<path d="M9.99984 1.66669C8.90549 1.66669 7.82185 1.88224 6.81081 2.30102C5.79976 2.71981 4.8811 3.33364 4.10728 4.10746C2.54448 5.67027 1.6665 7.78988 1.6665 10C1.6665 12.2102 2.54448 14.3298 4.10728 15.8926C4.8811 16.6664 5.79976 17.2802 6.81081 17.699C7.82185 18.1178 8.90549 18.3334 9.99984 18.3334C12.21 18.3334 14.3296 17.4554 15.8924 15.8926C17.4552 14.3298 18.3332 12.2102 18.3332 10C18.3332 8.90567 18.1176 7.82204 17.6988 6.81099C17.28 5.79994 16.6662 4.88129 15.8924 4.10746C15.1186 3.33364 14.1999 2.71981 13.1889 2.30102C12.1778 1.88224 11.0942 1.66669 9.99984 1.66669ZM9.99984 3.33335C11.7679 3.33335 13.4636 4.03573 14.7139 5.28598C15.9641 6.53622 16.6665 8.23191 16.6665 10C16.6665 11.7681 15.9641 13.4638 14.7139 14.7141C13.4636 15.9643 11.7679 16.6667 9.99984 16.6667C8.23173 16.6667 6.53603 15.9643 5.28579 14.7141C4.03555 13.4638 3.33317 11.7681 3.33317 10C3.33317 8.23191 4.03555 6.53622 5.28579 5.28598C6.53603 4.03573 8.23173 3.33335 9.99984 3.33335ZM5.83317 8.33335L9.99984 12.5L14.1665 8.33335H5.83317Z" fill="black"/>
</svg>
