<svg width="20" height="19" viewBox="0 0 20 19" fill="none" xmlns="http://www.w3.org/2000/svg">
<g id="check-circle-1">
<path id="Shape" d="M10 0.0426025C4.47715 0.0426025 0 4.23398 0 9.4043C0 14.5746 4.47715 18.766 10 18.766C15.5228 18.766 20 14.5746 20 9.4043C19.9936 4.23647 15.5202 0.0486211 10 0.0426025Z" fill="#5243C2" fill-opacity="0.103693"/>
<path id="Path" d="M15.7727 6.43975L10.0685 13.6865C9.93246 13.8555 9.7296 13.9662 9.50552 13.9937C9.28143 14.0213 9.0549 13.9635 8.87683 13.8332L4.8035 10.7844C4.44405 10.5151 4.38585 10.024 4.6735 9.68748C4.96115 9.35097 5.48572 9.29649 5.84516 9.56577L9.24183 12.1098L14.431 5.51684C14.6012 5.27779 14.8979 5.14563 15.2033 5.17282C15.5088 5.20002 15.7736 5.38216 15.8926 5.64694C16.0116 5.91173 15.9655 6.2163 15.7727 6.43975Z" fill="#5243C2"/>
</g>
</svg>
