<svg width="29" height="28" viewBox="0 0 29 28" fill="none" xmlns="http://www.w3.org/2000/svg">
<path d="M14.6667 2.33331C8.25 2.33331 3 7.57165 3 14.0233C3 19.8566 7.27 24.6983 12.8467 25.5733V17.4066H9.88333V14.0233H12.8467V11.445C12.8467 8.51665 14.585 6.90665 17.2567 6.90665C18.5283 6.90665 19.8583 7.12831 19.8583 7.12831V10.01H18.3883C16.9417 10.01 16.4867 10.9083 16.4867 11.83V14.0233H19.73L19.205 17.4066H16.4867V25.5733C19.2358 25.1391 21.7392 23.7364 23.5449 21.6184C25.3506 19.5004 26.3396 16.8066 26.3333 14.0233C26.3333 7.57165 21.0833 2.33331 14.6667 2.33331Z" fill="#211440"/>
</svg>
