<svg width="28" height="28" viewBox="0 0 28 28" fill="none" xmlns="http://www.w3.org/2000/svg">
<g id="facebook">
<path id="Vector" d="M14.0002 2.33325C7.5835 2.33325 2.3335 7.57159 2.3335 14.0233C2.3335 19.8566 6.60349 24.6982 12.1802 25.5732V17.4066H9.21683V14.0233H12.1802V11.4449C12.1802 8.51659 13.9185 6.90659 16.5902 6.90659C17.8618 6.90659 19.1918 7.12825 19.1918 7.12825V10.0099H17.7218C16.2752 10.0099 15.8202 10.9083 15.8202 11.8299V14.0233H19.0635L18.5385 17.4066H15.8202V25.5732C18.5693 25.1391 21.0727 23.7364 22.8784 21.6183C24.6841 19.5003 25.6731 16.8065 25.6668 14.0233C25.6668 7.57159 20.4168 2.33325 14.0002 2.33325Z" fill="white"/>
</g>
</svg>
