<svg width="29" height="28" viewBox="0 0 29 28" fill="none" xmlns="http://www.w3.org/2000/svg">
<path d="M9.43366 2.33331H19.2337C22.967 2.33331 26.0003 5.36665 26.0003 9.09998V18.9C26.0003 20.6946 25.2874 22.4157 24.0184 23.6847C22.7494 24.9537 21.0283 25.6666 19.2337 25.6666H9.43366C5.70033 25.6666 2.66699 22.6333 2.66699 18.9V9.09998C2.66699 7.30535 3.37991 5.58422 4.6489 4.31522C5.9179 3.04623 7.63903 2.33331 9.43366 2.33331ZM9.20033 4.66665C8.08642 4.66665 7.01813 5.10915 6.23048 5.8968C5.44282 6.68445 5.00033 7.75274 5.00033 8.86665V19.1333C5.00033 21.455 6.87866 23.3333 9.20033 23.3333H19.467C20.5809 23.3333 21.6492 22.8908 22.4368 22.1032C23.2245 21.3155 23.667 20.2472 23.667 19.1333V8.86665C23.667 6.54498 21.7887 4.66665 19.467 4.66665H9.20033ZM20.4587 6.41665C20.8454 6.41665 21.2164 6.57029 21.4899 6.84378C21.7633 7.11727 21.917 7.48821 21.917 7.87498C21.917 8.26175 21.7633 8.63269 21.4899 8.90618C21.2164 9.17967 20.8454 9.33331 20.4587 9.33331C20.0719 9.33331 19.701 9.17967 19.4275 8.90618C19.154 8.63269 19.0003 8.26175 19.0003 7.87498C19.0003 7.48821 19.154 7.11727 19.4275 6.84378C19.701 6.57029 20.0719 6.41665 20.4587 6.41665ZM14.3337 8.16665C15.8808 8.16665 17.3645 8.78123 18.4584 9.87519C19.5524 10.9692 20.167 12.4529 20.167 14C20.167 15.5471 19.5524 17.0308 18.4584 18.1248C17.3645 19.2187 15.8808 19.8333 14.3337 19.8333C12.7866 19.8333 11.3028 19.2187 10.2089 18.1248C9.11491 17.0308 8.50033 15.5471 8.50033 14C8.50033 12.4529 9.11491 10.9692 10.2089 9.87519C11.3028 8.78123 12.7866 8.16665 14.3337 8.16665ZM14.3337 10.5C13.4054 10.5 12.5152 10.8687 11.8588 11.5251C11.2024 12.1815 10.8337 13.0717 10.8337 14C10.8337 14.9282 11.2024 15.8185 11.8588 16.4749C12.5152 17.1312 13.4054 17.5 14.3337 17.5C15.2619 17.5 16.1522 17.1312 16.8085 16.4749C17.4649 15.8185 17.8337 14.9282 17.8337 14C17.8337 13.0717 17.4649 12.1815 16.8085 11.5251C16.1522 10.8687 15.2619 10.5 14.3337 10.5Z" fill="#211440"/>
</svg>
