<svg width="68" height="69" viewBox="0 0 68 69" fill="none" xmlns="http://www.w3.org/2000/svg">
<rect x="2.1262" y="34.9949" width="45.0797" height="45.0797" transform="rotate(-45 2.1262 34.9949)" stroke="#555252" stroke-opacity="0.3" stroke-width="3"/>
<path d="M33.6607 27.2026C32.6084 27.2026 31.5664 27.3939 30.5942 27.7654C29.622 28.1369 28.7386 28.6814 27.9945 29.3679C26.4917 30.7543 25.6475 32.6346 25.6475 34.5953C25.6475 36.5559 26.4917 38.4363 27.9945 39.8226C28.7386 40.5091 29.622 41.0537 30.5942 41.4252C31.5664 41.7967 32.6084 41.9879 33.6607 41.9879C35.786 41.9879 37.8242 41.209 39.327 39.8226C40.8298 38.4363 41.674 36.5559 41.674 34.5953C41.674 33.6245 41.4668 32.6631 41.0641 31.7662C40.6613 30.8693 40.0711 30.0544 39.327 29.3679C38.5829 28.6814 37.6995 28.1369 36.7273 27.7654C35.7551 27.3939 34.7131 27.2026 33.6607 27.2026ZM37.0263 37.7002L32.8594 35.3345V30.899H34.0614V34.7431L37.6674 36.7391L37.0263 37.7002Z" fill="#211440"/>
</svg>
