<svg width="68" height="69" viewBox="0 0 68 69" fill="none" xmlns="http://www.w3.org/2000/svg">
<rect x="2.1262" y="34.5" width="44.3797" height="44.3797" transform="rotate(-45 2.1262 34.5)" stroke="#555252" stroke-opacity="0.3" stroke-width="3"/>
<path d="M33.0467 25.7213C28.0417 25.7213 23.9625 29.5455 23.9625 34.2377C23.9625 35.7416 24.3842 37.2025 25.1725 38.4916L23.8892 42.9088L28.7017 41.7228C30.0308 42.4017 31.525 42.7627 33.0467 42.7627C38.0517 42.7627 42.1308 38.9384 42.1308 34.2463C42.1308 31.9689 41.1867 29.8291 39.4725 28.222C37.7583 26.6064 35.4758 25.7213 33.0467 25.7213ZM33.0558 27.1564C35.0725 27.1564 36.9608 27.8955 38.3908 29.2361C39.8117 30.5767 40.6 32.3556 40.6 34.2463C40.6 38.1478 37.2083 41.3189 33.0467 41.3189C31.69 41.3189 30.3608 40.9838 29.2058 40.3306L28.9308 40.1845L26.0708 40.8892L26.8317 38.2767L26.6483 38.0017C25.8967 36.8931 25.4933 35.5783 25.4933 34.2377C25.5025 30.3361 28.885 27.1564 33.0558 27.1564ZM29.8292 30.3017C29.6825 30.3017 29.435 30.3533 29.2242 30.5681C29.0225 30.783 28.4267 31.3072 28.4267 32.347C28.4267 33.3955 29.2425 34.4009 29.3433 34.547C29.4717 34.6931 30.9567 36.8416 33.2392 37.7525C33.78 37.9845 34.2017 38.1134 34.5317 38.208C35.0725 38.3713 35.5675 38.3455 35.9617 38.2939C36.4017 38.2338 37.3 37.7783 37.4925 37.2798C37.685 36.7814 37.685 36.3603 37.63 36.2658C37.5658 36.1798 37.4192 36.1283 37.19 36.0338C36.9608 35.9134 35.8425 35.3978 35.6408 35.3291C35.43 35.2603 35.3017 35.2259 35.1275 35.4322C34.9808 35.647 34.5408 36.1283 34.4125 36.2658C34.275 36.4119 34.1467 36.4291 33.9267 36.3259C33.6883 36.2142 32.955 35.9908 32.0933 35.2689C31.415 34.7017 30.9658 34.0056 30.8283 33.7908C30.7183 33.5845 30.8192 33.4556 30.9292 33.3611C31.03 33.2666 31.1767 33.1119 31.2683 32.983C31.3875 32.8627 31.4242 32.7681 31.4975 32.6306C31.5708 32.4845 31.5342 32.3642 31.4792 32.2611C31.4242 32.1666 30.9658 31.1009 30.7733 30.6798C30.59 30.2673 30.4067 30.3189 30.26 30.3103C30.1317 30.3103 29.985 30.3017 29.8292 30.3017Z" fill="#211440"/>
</svg>
