<svg width="19" height="19" viewBox="0 0 19 19" fill="none" xmlns="http://www.w3.org/2000/svg">
<path d="M11.2251 9.13422C11.1899 9.09905 11.17 9.05128 11.17 9.00147C11.17 8.95166 11.1899 8.9039 11.2251 8.86872L18.1724 1.92222C18.6116 1.48233 18.6111 0.76962 18.1712 0.330347C17.7313 -0.108927 17.0186 -0.108423 16.5794 0.331472L9.63287 7.27497C9.59769 7.31024 9.54993 7.33006 9.50012 7.33006C9.45031 7.33006 9.40255 7.31024 9.36737 7.27497L2.42087 0.331472C1.9816 -0.108009 1.26923 -0.108177 0.829746 0.331097C0.390265 0.77037 0.390097 1.48274 0.829371 1.92222L7.77512 8.86872C7.81039 8.9039 7.83021 8.95166 7.83021 9.00147C7.83021 9.05128 7.81039 9.09905 7.77512 9.13422L0.829371 16.0815C0.545211 16.3658 0.434305 16.7801 0.538431 17.1683C0.642557 17.5565 0.945895 17.8597 1.33418 17.9637C1.72247 18.0676 2.13671 17.9565 2.42087 17.6722L9.36737 10.725C9.40255 10.6897 9.45031 10.6699 9.50012 10.6699C9.54993 10.6699 9.59769 10.6897 9.63287 10.725L16.5794 17.6722C17.0186 18.1117 17.731 18.1119 18.1705 17.6726C18.61 17.2333 18.6101 16.521 18.1709 16.0815L11.2251 9.13422Z" fill="#F496D1"/>
</svg>
