<svg width="17" height="15" viewBox="0 0 17 15" fill="none" xmlns="http://www.w3.org/2000/svg">
<path d="M16.8288 2.21017L14.7348 0.11017C14.6644 0.0396391 14.5689 0 14.4693 0C14.3697 0 14.2741 0.0396391 14.2038 0.11017L5.3598 8.96017C5.28944 9.0307 5.19392 9.07034 5.0943 9.07034C4.99467 9.07034 4.89915 9.0307 4.82879 8.96017L2.73479 6.86017C2.66444 6.78964 2.56892 6.75 2.4693 6.75C2.36967 6.75 2.27415 6.78964 2.20379 6.86017L0.109795 8.96017C-0.0365983 9.10661 -0.0365983 9.34398 0.109795 9.49042L4.82879 14.2102C4.89915 14.2807 4.99467 14.3203 5.0943 14.3203C5.19392 14.3203 5.28944 14.2807 5.3598 14.2102L16.8288 2.73517C16.9717 2.58935 16.9717 2.35599 16.8288 2.21017Z" fill="#5243C2"/>
</svg>
