<svg width="28" height="28" viewBox="0 0 28 28" fill="none" xmlns="http://www.w3.org/2000/svg">
<g id="instagram">
<path id="Vector" d="M9.10016 2.33325H18.9002C22.6335 2.33325 25.6668 5.36659 25.6668 9.09992V18.8999C25.6668 20.6946 24.9539 22.4157 23.6849 23.6847C22.4159 24.9537 20.6948 25.6666 18.9002 25.6666H9.10016C5.36683 25.6666 2.3335 22.6333 2.3335 18.8999V9.09992C2.3335 7.30529 3.04641 5.58416 4.31541 4.31516C5.5844 3.04617 7.30553 2.33325 9.10016 2.33325ZM8.86683 4.66659C7.75292 4.66659 6.68463 5.10908 5.89698 5.89674C5.10933 6.68439 4.66683 7.75268 4.66683 8.86659V19.1333C4.66683 21.4549 6.54516 23.3333 8.86683 23.3333H19.1335C20.2474 23.3333 21.3157 22.8908 22.1033 22.1031C22.891 21.3154 23.3335 20.2472 23.3335 19.1333V8.86659C23.3335 6.54492 21.4552 4.66659 19.1335 4.66659H8.86683ZM20.1252 6.41659C20.5119 6.41659 20.8829 6.57023 21.1564 6.84372C21.4299 7.11721 21.5835 7.48814 21.5835 7.87492C21.5835 8.26169 21.4299 8.63263 21.1564 8.90612C20.8829 9.17961 20.5119 9.33325 20.1252 9.33325C19.7384 9.33325 19.3675 9.17961 19.094 8.90612C18.8205 8.63263 18.6668 8.26169 18.6668 7.87492C18.6668 7.48814 18.8205 7.11721 19.094 6.84372C19.3675 6.57023 19.7384 6.41659 20.1252 6.41659ZM14.0002 8.16659C15.5473 8.16659 17.031 8.78117 18.125 9.87513C19.2189 10.9691 19.8335 12.4528 19.8335 13.9999C19.8335 15.547 19.2189 17.0307 18.125 18.1247C17.031 19.2187 15.5473 19.8333 14.0002 19.8333C12.4531 19.8333 10.9693 19.2187 9.87537 18.1247C8.78141 17.0307 8.16683 15.547 8.16683 13.9999C8.16683 12.4528 8.78141 10.9691 9.87537 9.87513C10.9693 8.78117 12.4531 8.16659 14.0002 8.16659ZM14.0002 10.4999C13.0719 10.4999 12.1817 10.8687 11.5253 11.525C10.8689 12.1814 10.5002 13.0717 10.5002 13.9999C10.5002 14.9282 10.8689 15.8184 11.5253 16.4748C12.1817 17.1312 13.0719 17.4999 14.0002 17.4999C14.9284 17.4999 15.8187 17.1312 16.475 16.4748C17.1314 15.8184 17.5002 14.9282 17.5002 13.9999C17.5002 13.0717 17.1314 12.1814 16.475 11.525C15.8187 10.8687 14.9284 10.4999 14.0002 10.4999Z" fill="#E5E6E9"/>
</g>
</svg>
